<svg xmlns="http://www.w3.org/2000/svg" height="24" viewBox="0 0 24 24" width="24" focusable="false" aria-hidden="true" style="pointer-events: none; display: inherit; width: 100%; height: 100%;"><path fill="white" d="m6.71 7.2 1.18-2.1L6.71 3l2.1 1.18L10.91 3 9.74 5.1l1.18 2.1-2.1-1.18L6.71 7.2zm12.19 7.06-2.1-1.18 1.18 2.1-1.18 2.1 2.1-1.18 2.1 1.18-1.18-2.1 1.18-2.1-2.1 1.18zM21 3l-2.1 1.18L16.8 3l1.18 2.1-1.18 2.1 2.1-1.18L21 7.2l-1.18-2.1L21 3zm-3.86 7.02L6.15 21 3 17.85l11-11 3.14 3.17zM6.15 19.59l7.55-7.55-1.74-1.74-7.55 7.55 1.74 1.74z"></path></svg>